<?xml version="1.0" encoding="UTF-8"?>
<svg xmlns="http://www.w3.org/2000/svg" viewBox="0 0 164.12 130.62">
  <defs>
    <style>
      .cls-1 {
        fill: #b2b6b5;
      }

      .cls-1, .cls-2, .cls-3, .cls-4, .cls-5, .cls-6, .cls-7, .cls-8 {
        stroke-width: 0px;
      }

      .cls-1, .cls-2, .cls-5, .cls-6 {
        mix-blend-mode: multiply;
      }

      .cls-1, .cls-5 {
        opacity: .6;
      }

      .cls-2 {
        fill: #8a8a8a;
      }

      .cls-3 {
        fill: #9a9999;
      }

      .cls-3, .cls-7, .cls-9 {
        mix-blend-mode: screen;
      }

      .cls-4 {
        fill: #c7c7c7;
      }

      .cls-5, .cls-6 {
        fill: #aaaaa9;
      }

      .cls-6 {
        opacity: .3;
      }

      .cls-7 {
        fill: #868585;
      }

      .cls-7, .cls-10 {
        opacity: .5;
      }

      .cls-9 {
        opacity: .2;
      }

      .cls-11 {
        isolation: isolate;
      }

      .cls-8 {
        fill: #a3a3a3;
      }
    </style>
  </defs>
  <g class="cls-11">
    <g id="Layer_1" data-name="Layer 1">
      <g>
        <path class="cls-1" d="M145.89,57.51c-.08-.21-.17-.41-.26-.61h0s-.02-.04-.03-.06c-.14-.31-.3-.62-.45-.93-.17-.34-.35-.68-.52-1.02-.03-.06-.06-.13-.09-.19-.16-.32-.31-.64-.44-.97-.02-.05-.04-.09-.06-.14-.14-.34-.26-.68-.35-1.03-.09-.34-.15-.68-.19-1.03,0-.03,0-.06,0-.09h0s0-.07,0-.11c-.01-.12-.02-.25-.03-.38-.03-.47-.04-.94-.02-1.4,0-.12.01-.24.02-.36.01-.24.03-.49.04-.73,0-.04,0-.08,0-.12.06-.79.12-1.57.14-2.35,0-.04,0-.08,0-.11,0-.44,0-.88-.04-1.32,0-.03,0-.05,0-.08,0,0,0,0,0,0,0-.07,0-.14-.01-.21-3.88-6.07-10.86-9.68-17.32-12.3-6.23-2.53-12.59-4.77-18.91-7.1h0c-1.05-.39-2.11-.77-3.16-1.17-3.33-.62-6.65-1.17-10.06-1.02-3.53.16-7.04.72-10.57.84-3.69.13-7.36-.34-11.05-.39-3.46-.04-6.82.4-10.26.6-2.74.16-5.5.12-8.22.47-1.07.14-2.26.32-3.38.65h0c-.19.05-.38.1-.56.17-.08.09-.16.18-.24.27-1.06,2.81-1.66,5.83-3.45,8.3-3.31,4.56-8.04,7.8-11.45,12.29-1.23,1.62-3.79,3.51-3.97,5.66-.19,2.29,1.2,3.69,2.06,5.64.89,2.01.53,4.16.75,6.3.23,2.26.53,4.5.37,6.78-.16,2.19-1.28,4.08-1.61,6.22-.21,1.37.12,2.34.54,3.6.04.12.08.25.12.38.02.08.04.15.06.23.02.08.04.15.06.23.01.07.03.13.04.2.02.1.03.19.04.29,0,.05.01.11.01.16,0,.15,0,.3-.01.46-.28,2.12-1.02,5.08,1.6,6.1,1.8.7,3.46,1.44,4.75,2.94,1.86,2.16,3.45,4.16,6.07,5.44,2.09,1.03,4.24,1.94,6.21,3.22,4.08,2.65,7.29,6.19,10.67,9.63.47.48.96.95,1.45,1.4.35.33.7.65,1.06.97h0c1.77,1.58,3.64,3.06,5.6,4.42.38.19.76.36,1.13.52.03.02.06.03.09.04,3.3,1.4,6.44,1.86,9.65,1.17h0s.01,0,.02,0c.02,0,.03,0,.05-.01.3-.07.6-.14.91-.23,0,0,0,0,0,0,.03,0,.06-.02.09-.03,0,0,0,0,0,0,.29-.09.59-.18.89-.29,0,0,0,0,.01,0,.06-.02.12-.05.18-.07.02,0,.03-.01.05-.02.59-.22,1.19-.48,1.79-.79,0,0,0,0,0,0,.17-.09.34-.18.51-.28.05-.03.1-.05.15-.08.48-.26.96-.55,1.44-.86,6.16-4.02,11.23-8.69,18.24-11.38,7.18-2.75,14.87-3.66,22.18-5.96,1.06-.33,2.1-.72,3.12-1.14,1.56-2.19,3.13-4.38,5.24-6,1.36-1.04,3.01-1.85,4.24-3.04.92-.89,1.47-1.96,1.85-3.12h0s0,0,0,0c.17-.54.32-1.09.44-1.66.21-1,.39-2.03.65-3.04.07-.26.13-.52.22-.78.02-.05.03-.1.04-.14.14-.42.3-.83.5-1.23.71-1.41,1.76-2.57,2.57-3.92,1.68-2.79.66-6.22.24-9.24-.33-2.33-.56-4.82-1.42-7.02Z"/>
        <g>
          <g>
            <g>
              <path class="cls-4" d="M134.46,83.54c1.35-1.3,1.91-2.99,2.28-4.79.36-1.73.62-3.59,1.42-5.19.71-1.41,1.76-2.58,2.57-3.92,1.68-2.79.66-6.22.24-9.24-.33-2.33-.56-4.82-1.42-7.03-.64-1.64-1.76-3.25-2.2-4.95-.71-2.75.22-5.56-.11-8.29-3.88-6.07-10.86-9.68-17.32-12.29-7.27-2.95-14.72-5.5-22.07-8.27-3.33-.62-6.65-1.17-10.06-1.02-3.53.16-7.04.71-10.57.84-3.69.13-7.36-.34-11.05-.39-3.46-.04-6.82.4-10.26.6-2.74.16-5.5.12-8.22.47-1.25.16-2.66.37-3.95.82-.08.08-.16.18-.24.27-1.06,2.81-1.66,5.83-3.45,8.3-3.31,4.56-8.04,7.8-11.45,12.29-1.23,1.62-3.79,3.5-3.97,5.66-.19,2.29,1.2,3.69,2.06,5.64.89,2.01.53,4.16.75,6.3.23,2.26.53,4.5.37,6.78-.16,2.19-1.28,4.08-1.61,6.22-.21,1.37.12,2.34.54,3.6.21.62.41,1.27.32,1.94-.28,2.12-1.02,5.08,1.6,6.1,1.8.7,3.46,1.44,4.75,2.94,1.86,2.16,3.45,4.16,6.07,5.44,2.09,1.03,4.24,1.94,6.21,3.22,4.08,2.64,7.29,6.19,10.67,9.63,2.47,2.51,5.2,4.78,8.12,6.79,5.84,2.85,11.11,2.91,16.98-.93,6.16-4.03,11.23-8.69,18.24-11.38,7.18-2.75,14.87-3.66,22.18-5.97,1.06-.33,2.1-.72,3.12-1.14,1.56-2.19,3.13-4.37,5.24-6,1.36-1.04,3.01-1.85,4.24-3.04Z"/>
              <path class="cls-8" d="M72.39,114.41c-2.56,0-5.21-.68-8.09-2.09-3.05-2.1-5.8-4.4-8.22-6.87-.45-.46-.91-.93-1.36-1.39-2.83-2.91-5.76-5.92-9.25-8.19-1.49-.97-3.12-1.74-4.7-2.49-.49-.23-.98-.47-1.47-.71-2.49-1.22-4.08-3.07-5.76-5.03l-.43-.5c-1.25-1.45-2.9-2.17-4.61-2.84-2.63-1.02-2.22-3.8-1.92-5.83.03-.23.07-.45.09-.66.07-.58-.1-1.17-.31-1.78-.44-1.3-.78-2.31-.55-3.77.15-1,.47-1.94.78-2.86.38-1.12.74-2.18.82-3.33.14-1.91-.06-3.85-.26-5.72l-.1-1c-.07-.69-.08-1.38-.09-2.04-.03-1.46-.05-2.84-.63-4.15-.24-.54-.53-1.05-.81-1.54-.7-1.25-1.43-2.53-1.28-4.27.14-1.66,1.53-3.12,2.75-4.4.49-.51.95-.99,1.29-1.45,1.67-2.19,3.67-4.12,5.61-5.97,2.04-1.96,4.15-3.98,5.84-6.31,1.26-1.74,1.93-3.81,2.58-5.82.26-.8.52-1.61.82-2.4.02-.04.04-.08.07-.11l.08-.09c.06-.07.12-.14.18-.2.04-.04.09-.07.14-.09,1.29-.45,2.7-.67,4.02-.84,1.84-.24,3.71-.3,5.52-.36.91-.03,1.82-.06,2.73-.11,1.17-.07,2.34-.16,3.5-.26,2.06-.17,4.19-.34,6.32-.34h.46c1.53.02,3.09.12,4.59.21,2.11.13,4.3.26,6.45.18,1.83-.07,3.69-.25,5.48-.43,1.66-.17,3.38-.34,5.08-.41,3.45-.16,6.77.4,10.15,1.02,2.69,1.01,5.34,1.97,7.98,2.94,4.66,1.7,9.48,3.46,14.16,5.35,6,2.43,13.4,6.04,17.49,12.44.03.05.05.1.05.15.14,1.22.05,2.46-.05,3.65-.12,1.52-.24,3.09.14,4.59.25.98.75,1.96,1.24,2.9.34.66.68,1.33.95,2.01.75,1.91,1.03,4.02,1.3,6.05l.14,1.05c.07.51.16,1.04.25,1.57.46,2.7.93,5.48-.54,7.92-.34.57-.73,1.11-1.11,1.64-.54.75-1.05,1.46-1.45,2.26-.63,1.26-.91,2.71-1.19,4.12-.06.33-.13.66-.2.99-.35,1.66-.9,3.54-2.39,4.97-.77.75-1.7,1.34-2.59,1.92-.57.37-1.16.74-1.68,1.15-2.12,1.63-3.74,3.91-5.17,5.93-.04.05-.09.1-.16.12-1.08.45-2.14.83-3.15,1.15-3.17,1-6.46,1.75-9.64,2.48-4.16.95-8.46,1.93-12.52,3.48-4.89,1.87-8.77,4.68-12.88,7.65-1.7,1.23-3.45,2.5-5.29,3.7-3.13,2.05-6.15,3.04-9.25,3.04ZM43.81,21.34c-.28.76-.53,1.53-.79,2.3-.67,2.06-1.36,4.19-2.69,6.02-1.73,2.38-3.86,4.42-5.93,6.41-1.92,1.84-3.9,3.74-5.53,5.89-.37.49-.84.98-1.34,1.51-1.14,1.2-2.44,2.56-2.56,3.96-.13,1.52.48,2.6,1.19,3.85.29.51.58,1.04.84,1.61.64,1.45.66,2.96.69,4.43.01.65.02,1.33.09,1.98l.1.99c.2,1.9.41,3.87.26,5.85-.09,1.25-.48,2.4-.86,3.51-.3.88-.61,1.8-.75,2.73-.2,1.28.1,2.17.52,3.41.24.7.44,1.38.34,2.11-.03.22-.06.44-.09.67-.29,1.98-.62,4.23,1.47,5.04,1.8.7,3.53,1.46,4.9,3.04l.43.5c1.7,1.99,3.17,3.7,5.53,4.85.49.24.98.47,1.46.7,1.6.76,3.25,1.55,4.78,2.54,3.56,2.31,6.52,5.35,9.38,8.29.45.46.9.93,1.36,1.39,2.39,2.43,5.1,4.7,8.06,6.75,6.02,2.93,11.06,2.67,16.57-.93,1.82-1.19,3.57-2.45,5.26-3.67,4.15-3,8.07-5.83,13.05-7.74,4.1-1.57,8.43-2.55,12.61-3.51,3.17-.72,6.44-1.47,9.58-2.46.96-.31,1.97-.67,3-1.09,1.45-2.04,3.08-4.32,5.26-5.99.55-.42,1.15-.81,1.73-1.18.87-.56,1.76-1.13,2.48-1.83,1.34-1.29,1.84-2.98,2.18-4.6.07-.32.13-.65.2-.98.28-1.45.58-2.96,1.25-4.3.43-.85.98-1.62,1.51-2.36.37-.51.75-1.04,1.08-1.59,1.33-2.2.88-4.85.44-7.42-.09-.54-.18-1.07-.25-1.59l-.14-1.06c-.26-1.99-.54-4.05-1.25-5.88-.25-.64-.58-1.27-.92-1.94-.5-.98-1.02-2-1.3-3.06-.42-1.62-.29-3.25-.16-4.83.09-1.19.18-2.31.06-3.43-3.99-6.18-11.24-9.7-17.11-12.08-4.66-1.89-9.48-3.65-14.13-5.34-2.65-.97-5.29-1.93-7.93-2.93-3.26-.6-6.53-1.15-9.92-.99-1.68.08-3.39.24-5.04.41-1.81.18-3.68.37-5.53.43-2.18.08-4.38-.06-6.52-.18-1.49-.09-3.04-.18-4.55-.2h-.45c-2.1,0-4.22.17-6.27.34-1.17.09-2.34.19-3.52.26-.91.05-1.83.08-2.74.11-1.79.06-3.65.12-5.45.35-1.26.16-2.59.37-3.79.77-.03.03-.06.06-.09.1l-.04.05Z"/>
            </g>
            <g class="cls-9">
              <path class="cls-7" d="M53.67,59.98c-2.87-.05-6.99.12-9.13-2.2-1.23-1.34-1.66-3.16-2.1-4.88-.51-2-.89-4.03-1.29-6.05-.61-3.11-1.3-6.18-2.53-9.06.37,1.65.75,3.29,1.1,4.94.52,2.43.83,4.82,1.11,7.22.25,2.13.23,4.89,1.18,7.02,1.39,3.14,3.95,3.97,6.22,3.65,1.66-.23,3.32-.43,5.04-.46.95-.02,1.91-.03,2.86-.04-.81-.07-1.62-.12-2.46-.13Z"/>
              <path class="cls-7" d="M51.45,82.92c-1.19,1.31-2.39,3.04-3.85,4.06-1.3.91-2.75,1.05-4.22,1.53-.94.31-1.83.74-2.72,1.16.86,0,1.72.07,2.6.02,1.92-.1,4.24-.93,5.82-2.07,1.75-1.27,2.17-3.58,3.06-5.45-.23.25-.45.5-.68.74Z"/>
            </g>
            <g>
              <path class="cls-2" d="M137.15,47.39c.04.34.11.69.19,1.03-.09-.34-.15-.68-.19-1.03Z"/>
              <path class="cls-6" d="M83.43,53.62c3-.91,5.86-2.28,8.76-3.45,5.64-2.28,10.75-5.59,16.28-8.1,2.62-1.19,5.38-2.15,8.23-2.58,2.77-.41,5.61-.28,8.39-.08,2.69.19,5.41.39,8.09.65,1.3.13,2.7.31,4.07.26,0-.07,0-.14-.01-.21-3.88-6.07-10.86-9.68-17.32-12.29-7.27-2.95-14.72-5.5-22.07-8.27-3.33-.62-6.65-1.17-10.06-1.02-3.53.16-7.04.71-10.57.84-3.69.13-7.36-.34-11.05-.39-3.46-.04-6.82.4-10.26.6-2.74.16-5.5.12-8.22.47-1.07.14-2.26.32-3.39.65,1.24,2.01,1.57,4.48,1.47,6.88-.07,1.67-.28,3.32-.56,4.96-.24,1.38-.65,2.91-.44,4.31.21,1.39,1.21,2.37,2.13,3.35,1.29,1.37,2.46,2.82,3.65,4.27,1.31,1.6,2.77,3.18,3.88,4.93,1.12,1.75,2.16,3.99,4.1,4.95,2.9,1.44,6.66,0,9.77.19,1.97.12,4.06.17,6.01.61.72-.25,1.63-.36,2.07-.43,2.37-.39,4.73-.4,7.05-1.1Z"/>
              <path class="cls-3" d="M60.58,53.61c-1.9-.86-3.44-2.11-4.57-3.87-1.23-1.91-2.26-3.88-3.85-5.53-2.2-2.29-5.82-4.97-6.18-8.4-.22-2.15-.22-4.33-.35-6.49-.1,1.08-.25,2.15-.43,3.22-.24,1.38-.65,2.91-.44,4.31.21,1.39,1.21,2.37,2.13,3.35,1.29,1.37,2.46,2.82,3.65,4.27,1.31,1.6,2.77,3.18,3.88,4.93,1.12,1.75,2.16,3.99,4.1,4.95,1.82.9,3.98.67,6.11.42-1.4-.24-2.77-.57-4.06-1.16Z"/>
              <path class="cls-6" d="M55.6,35.22c-2.28.16-4.52.46-6.69,1.07,1.62-.09,3.24-.01,4.88.13,2.94.27,5.8-.2,8.7-.62,2.69-.39,5.99-.04,8.34-1.61.77-.52,1.47-1.09,2.13-1.69-2.27,1.28-5,1.41-7.54,1.76-3.28.45-6.52.72-9.82.96Z"/>
              <path class="cls-6" d="M107.73,34.28c-4.02,1.25-7.95,3.1-11.31,5.66,1.53-.69,3.11-1.25,4.72-1.78,1.65-.55,3.16-1.14,4.69-1.98,1.02-.55,2.05-1.06,3.16-1.4,2.58-.78,5.6-.71,7.35-3.13.44-.6.8-1.25,1.14-1.91-1.08,1.04-2.27,1.95-3.63,2.59-1.97.93-4.04,1.31-6.11,1.95Z"/>
              <path class="cls-3" d="M51.71,20.62c1.83.08,3.73.27,5.56.09,1.37-.13,2.77-.44,4.15-.42,2.43.04,4.72,1.06,7.17.68,3.02-.48,5.98-1.07,9.04-1.3,3.19-.24,6.4-.32,9.58-.07,3.06.25,6.19-.05,9.23.32,1.53.19,3.05.47,4.56.8-1.05-.39-2.11-.77-3.16-1.17-3.33-.62-6.65-1.17-10.06-1.02-3.53.16-7.04.71-10.57.84-3.69.13-7.36-.34-11.05-.39-3.46-.04-6.82.4-10.26.6-2.74.16-5.5.12-8.22.47-.66.08-1.36.19-2.07.33,2.03.04,4.07.14,6.1.22Z"/>
              <path class="cls-3" d="M119.99,38.9c-2.54-.16-5.18-.79-7.73-.41-2.9.44-5.11,2.42-7.66,3.71-2.99,1.5-6.12,2.82-8.95,4.61-2.56,1.62-4.85,2.94-7.84,3.54-1.48.3-3.18,1.98-4.63,2.33-1.4.35-2.78-.85-4.09-.3-2.13.88-3.88,2.16-6.11,2.54.45.06.91.14,1.35.24.72-.25,1.63-.36,2.07-.43,2.37-.39,4.73-.4,7.05-1.1,3-.91,5.86-2.28,8.76-3.45,5.64-2.28,10.75-5.59,16.28-8.1,2.62-1.19,5.38-2.15,8.23-2.58,2.06-.31,4.16-.31,6.25-.21-.97-.18-1.96-.32-2.96-.38Z"/>
              <path class="cls-2" d="M137.08,46.27c-.04-1.99.37-3.98.18-5.94.19,1.96-.22,3.95-.18,5.94Z"/>
              <path class="cls-2" d="M137.14,47.18c-.03-.28-.05-.56-.06-.84,0,.28.03.56.06.84Z"/>
              <polygon class="cls-2" points="137.25 40.33 137.25 40.33 137.25 40.33 137.25 40.33"/>
              <path class="cls-2" d="M137.14,47.18c0,.07,0,.13.02.2,0-.07,0-.13-.02-.2Z"/>
              <path class="cls-2" d="M137.08,46.35s0-.05,0-.08c0,.02,0,.05,0,.08Z"/>
            </g>
            <path class="cls-5" d="M134.46,83.54c1.35-1.3,1.91-2.99,2.28-4.79.36-1.73.62-3.59,1.42-5.19.71-1.41,1.76-2.58,2.57-3.92,1.68-2.79.66-6.22.24-9.24-.33-2.33-.56-4.82-1.42-7.03-.64-1.64-1.76-3.25-2.2-4.95-.09-.34-.15-.68-.19-1.03,0-.07,0-.13-.02-.2-.03-.28-.05-.56-.06-.84,0-.03,0-.05,0-.08-.04-1.99.37-3.98.18-5.94,0,0,0,0,0,0-1.37.05-2.77-.13-4.07-.26-2.69-.27-5.4-.46-8.09-.65-2.78-.2-5.62-.33-8.39.08-2.85.43-5.61,1.39-8.23,2.58-5.53,2.51-10.64,5.82-16.28,8.1-2.9,1.17-5.76,2.54-8.76,3.45-2.32.7-4.68.71-7.05,1.1-.43.07-1.34.18-2.07.43-.57.2-1.02.49-1.04.92-.03.61-.12,1.2-.29,1.79-.44,1.55-1.06,3.03-1.66,4.52-1.29,3.16-1.33,8.25-5.09,9.74-1.61.64-3.38.7-5.01,1.28-.73.26-2.62,1.01-2.25,2.15.19.59.46,1.16.73,1.71.68,1.41,1.42,2.79,2.06,4.21.64,1.43.95,2.97,1.55,4.42.83,2.04,2.06,3.88,3.8,5.26,1.13.9,2.44,1.82,3.21,3.07.71,1.16.97,2.36.38,3.63-.18.39-.64.71-1.03.86-1.11.42-1.97.96-2.57,2.04-.56,1.01-.53,2.02-.84,3.09-.3.99-.62,1.97-1.07,2.9-.68,1.42-1.51,2.74-2.31,4.09.53.39,1.05.78,1.59,1.15,3.06,1.49,5.97,2.2,8.89,2,0,0,0,0,0,.01.13,0,.25-.03.38-.04.14-.01.28-.03.42-.04.39-.05.79-.11,1.19-.2,0,0,.01,0,.02,0,.32-.07.64-.15.96-.24.03,0,.06-.02.09-.03.3-.09.6-.18.91-.29.06-.02.12-.05.18-.07.27-.1.55-.21.83-.33.1-.04.21-.1.31-.14.24-.11.47-.22.71-.34.17-.08.34-.18.51-.27.18-.1.35-.19.53-.29.35-.2.71-.42,1.06-.65,6.16-4.03,11.23-8.69,18.24-11.38,7.18-2.75,14.87-3.66,22.18-5.97,1.06-.33,2.1-.72,3.12-1.14,1.56-2.19,3.13-4.37,5.24-6,1.36-1.04,3.01-1.85,4.24-3.04Z"/>
            <path class="cls-5" d="M133.74,77.42c-3.41,1.23-6.97,1.37-10.52,1.86-7.06.98-14.78,1.5-21.5,4.04-6.39,2.42-10.86,7.72-16.7,11.04-4.43,2.52-9.34,2.23-14.13,2.96-.05.17-.11.35-.19.53-.18.39-.64.71-1.03.86-1.11.42-1.97.96-2.57,2.04-.56,1.01-.53,2.02-.84,3.09-.3.99-.62,1.97-1.07,2.9-.68,1.42-1.51,2.74-2.31,4.09.53.39,1.05.78,1.59,1.15,3.06,1.49,5.97,2.2,8.89,2,0,0,0,0,0,.01.13,0,.25-.03.38-.04.14-.01.28-.03.42-.04.39-.05.79-.11,1.19-.2,0,0,.01,0,.02,0,.32-.07.64-.15.96-.24.03,0,.06-.02.09-.03.3-.09.6-.18.91-.29.06-.02.12-.05.18-.07.27-.1.55-.21.83-.33.1-.04.21-.1.31-.14.24-.11.47-.22.71-.34.17-.08.34-.18.51-.27.18-.1.35-.19.53-.29.35-.2.71-.42,1.06-.65,6.16-4.03,11.23-8.69,18.24-11.38,7.18-2.75,14.87-3.66,22.18-5.97,1.06-.33,2.1-.72,3.12-1.14,1.56-2.19,3.13-4.37,5.24-6,1.36-1.04,3.01-1.85,4.24-3.04,1.35-1.3,1.91-2.99,2.28-4.79.21-1,.39-2.03.66-3.04-1.19.66-2.4,1.26-3.66,1.72Z"/>
            <path class="cls-3" d="M71.32,62.38c-1.29,3.16-1.33,8.25-5.09,9.74-1.31.52-2.72.66-4.08,1,.77-.11,1.54-.21,2.32-.27,1.24-.11,2.95.05,4.02-.69,1.08-.75,1.48-1.93,1.94-3.09,1.71-4.33,2.99-8.91,3.21-13.58-.22.16-.36.35-.37.59-.03.61-.12,1.2-.29,1.79-.44,1.55-1.06,3.03-1.66,4.52Z"/>
            <path class="cls-3" d="M71,96.6c1.7-2.59-3.03-5.69-4.76-7.52-1.55-1.64-1.9-3.77-2.7-5.81-.67-1.7-1.73-3.22-2.59-4.83-.62-1.13-1.25-2.23-2.02-3.25,0,.11,0,.24.04.36.19.59.46,1.16.73,1.71.68,1.41,1.42,2.79,2.06,4.21.64,1.43.95,2.97,1.55,4.42.83,2.04,2.06,3.88,3.8,5.26,1.13.9,2.44,1.82,3.21,3.07.48.77.74,1.56.7,2.38Z"/>
            <path class="cls-3" d="M74.94,113.54c-2.59-.23-5.28-.77-7.71-1.69-.64-.24-1.73-.56-1.98-1.3-.34-1,.03-2.05.42-3,.68-1.62,1.33-3.13,1.62-4.88.18-1.11.4-2.13.82-3.12-.4.31-.73.7-1.02,1.21-.56,1.01-.53,2.02-.84,3.09-.3.99-.62,1.97-1.07,2.9-.68,1.42-1.51,2.74-2.31,4.09.53.39,1.05.78,1.59,1.15,3.06,1.49,5.97,2.2,8.89,2,0,0,0,0,0,.01.13,0,.25-.03.38-.04.14-.01.28-.03.42-.04.39-.05.79-.11,1.19-.2,0,0,.01,0,.02,0,.18-.04.35-.09.53-.13-.32,0-.63-.02-.95-.04Z"/>
            <path class="cls-6" d="M118.32,50.29c2.19-.78,4.5-1.39,6.59-2.42-7.78,1.22-15.49,2.85-23.26,4.12,2.77-.07,5.53.31,8.3.28,2.92-.04,5.65-1.02,8.37-1.98Z"/>
            <path class="cls-6" d="M111.02,94.16c-5.26.06-9.13,2.82-13.74,4.94-2.7,1.24-5.54,2.32-8.01,3.99-2.39,1.61-4.16,3.83-6.18,5.85-1.03,1.03-2.08,2.03-3.15,3.01.14-.08.28-.15.43-.23.35-.2.71-.42,1.06-.65,6.16-4.03,11.23-8.69,18.24-11.38,7.18-2.75,14.87-3.66,22.18-5.97.34-.11.68-.23,1.01-.35-3.95.06-7.9.74-11.84.79Z"/>
            <path class="cls-6" d="M115.72,86.89c14.79-6.59,17.84-5.82,20.59-6.47.17-.54.32-1.1.44-1.67.27-1.3.49-2.68.91-3.97-3.36,2.06-18.75,9.79-21.94,12.11Z"/>
            <path class="cls-6" d="M135.16,50.02c-2.58,2.68-5.66,4.79-8.37,7.33,4.06-1.81,8.42-2.83,12.5-4.6-.65-1.43-1.56-2.85-1.94-4.34-.09-.34-.15-.68-.19-1.03,0-.03,0-.06,0-.09-.56.98-1.2,1.91-1.99,2.72Z"/>
            <path class="cls-6" d="M83.4,85.09c-1.54,2.48-2.54,5.33-4.53,7.51-.14.15-.28.3-.42.45.72-.49,1.42-1.01,2.07-1.59,1.8-1.62,3.08-3.56,4.36-5.6,1.36-2.17,2.79-4.1,4.66-5.58-2.47,1-4.67,2.44-6.15,4.81Z"/>
            <path class="cls-6" d="M71.66,74.77c2.2.25,4.38.28,6.56.25-3.03-.67-5.98-1.61-9.04-2.24-1.27-.26-2.49-.37-3.73-.41-1.39.41-2.87.53-4.24,1.03-.61.22-2.04.79-2.26,1.64,4.22-.77,8.44-.75,12.71-.27Z"/>
            <path class="cls-5" d="M55.07,101.77c-1.71-2.41-3.96-4.71-4.96-7.54-.79-2.24-.91-4.64-1.67-6.89-.86-2.55-1.94-5.08-3.34-7.38-1.21-1.98-2.86-4.68-5.39-5.05-4.14-.62-8.73.16-12.87,1.41.15.5.27,1.03.2,1.55-.28,2.12-1.02,5.08,1.6,6.1,1.8.7,3.46,1.44,4.75,2.94,1.86,2.16,3.45,4.16,6.07,5.44,2.09,1.03,4.24,1.94,6.21,3.22,4.08,2.64,7.29,6.19,10.67,9.63.81.82,1.65,1.61,2.51,2.38-1.2-1.98-2.45-3.92-3.78-5.81Z"/>
          </g>
          <g class="cls-10">
            <path class="cls-7" d="M117.26,31.98c.05-.12-.24-.11-.29-.03-.6.96-2.58,1.32-3.54,1.66-1.25.43-2.37,1.1-3.67,1.45-2.2.59-4.73,1.17-6.64,2.46-.21.14.17.21.29.16,2.97-1.4,6.24-1.42,9.15-2.96,1.28-.68,4.05-1.31,4.7-2.75Z"/>
            <path class="cls-7" d="M67.64,46.21c-.41.16-.82.34-1.21.54-.42.22-.91.4-1.26.73-.17.16.08.26.22.24.89-.17,1.67-.86,2.45-1.3.22-.12-.04-.27-.2-.21Z"/>
            <path class="cls-7" d="M69.63,31.41c-.82.14-1.57-.09-2.37-.22-.72-.12-1.46-.04-2.18.05-.8.1-1.57.5-2.34.67-.94.22-1.92.15-2.87.27-.2.03-.25.24-.02.25,1.72.06,3.69.08,5.39-.21,1.49-.25,3.12-.02,4.52-.63.19-.08,0-.22-.13-.2Z"/>
            <path class="cls-7" d="M54.9,32.25c-.3.18-1.06-.05-1.38-.11-.57-.1-1.2-.1-1.77,0-.27.05-.34.32-.02.34.37.03.74,0,1.11,0,.33,0,.66.07,1,.05.38-.02.96.08,1.27-.19.13-.12-.12-.17-.21-.12Z"/>
            <path class="cls-7" d="M75.47,24.73c-1.71.75-3.66.34-5.24,1.39-.24.16-.11.34.14.36.9.05,1.87-.17,2.74-.4.85-.23,1.89-.7,2.61-1.2.19-.13-.16-.19-.26-.15Z"/>
            <path class="cls-7" d="M68.74,26.27c-.39.18-.79.05-1.19.05s-.82.02-1.22.11c-.11.03-.26.19-.06.21.54.08,1.07-.07,1.6-.02.37.03.73-.03,1.05-.22.18-.1-.07-.19-.18-.14Z"/>
            <path class="cls-7" d="M63.67,26.89c-.96,0-1.92.04-2.88,0-.87-.02-1.68-.03-2.52.24-.14.04-.19.21-.01.24.86.14,1.8-.04,2.67-.05.91,0,1.82-.15,2.73-.23.16-.01.2-.2.01-.2Z"/>
            <path class="cls-7" d="M91.58,20.75c-.64,0-1.29.06-1.91.22-.37.09-.16.41.15.37.59-.08,1.16-.24,1.75-.3.23-.02.29-.3.02-.29Z"/>
            <path class="cls-7" d="M41.2,43.58c-.39-1.75-.46-3.24-.4-5.03.05-1.6-.59-3.16-.49-4.73,0-.15-.36-.1-.39.03-.33,1.56.06,3.25.05,4.83-.01,1.65.35,3.43.98,4.96.03.08.27.04.24-.06Z"/>
            <path class="cls-7" d="M29.27,50.9c-.03-.73-.63-1.37-.85-2.07-.17-.54-.16-1.02-.05-1.57.09-.44-.02-.93-.09-1.37-.02-.15-.36-.1-.38.03-.06.45-.14.9-.26,1.33-.18.6-.25.84-.13,1.45.17.92.93,1.51,1.36,2.29.07.14.41.07.41-.1Z"/>
            <path class="cls-7" d="M30.74,55.66c.01-.65-.41-1.19-.47-1.83-.02-.14-.35-.09-.35.05.01.29.07.59.19.87.13.31.13.71.33.98.07.09.3.06.31-.07Z"/>
            <path class="cls-7" d="M33.04,81.3c-1.93-2.23-2.98-5.04-4.83-7.32-.1-.12-.46-.06-.38.13.6,1.45.94,3,1.88,4.26.87,1.17,1.84,2.21,3.03,3.07.08.06.41,0,.3-.13Z"/>
            <path class="cls-7" d="M34.51,82.12c-.09-.08-.17-.15-.26-.23-.05-.04-.2.01-.14.08l.25.23c.05.05.22-.02.15-.08Z"/>
            <path class="cls-7" d="M40.09,84.42c-1.33-.62-2.88-.72-4.12-1.51-.07-.05-.38,0-.28.12.48.52,1.04.78,1.7,1.01.8.28,1.65.61,2.5.66.14,0,.43-.17.2-.28Z"/>
            <path class="cls-7" d="M90.97,78.09c-.98.32-1.97.71-2.93,1.09-.37.14-.74.22-1.09.42-.33.19-.63.67-.88.93-.19.2.18.24.31.18,1.6-.82,3.2-1.53,4.77-2.42.21-.12-.04-.25-.19-.2Z"/>
            <path class="cls-7" d="M106.71,76.75c-.06-.09-.35-.05-.32.08.06.25-2.03,1.01-2.28,1.11-.83.34-1.91,1.23-2.11,2.12-.04.19.31.15.39.07.91-.83,1.86-1.58,2.94-2.18.21-.12,1.64-.81,1.39-1.21Z"/>
            <path class="cls-7" d="M101.4,81.09c.07-.08-.14-.11-.19-.05-.63.66-1.31,1.3-1.86,2.03-.08.1.16.11.21.06.66-.62,1.24-1.35,1.83-2.04Z"/>
            <path class="cls-7" d="M102.18,86.36c.3-.57.69-1.05.91-1.67.05-.15-.28-.12-.33,0-.27.58-.66,1.11-1.08,1.58-.19.22-.32.51-.49.75-.22.29-.46.5-.61.83-.1.22.38.14.45.09.57-.4.83-.97,1.15-1.57Z"/>
            <path class="cls-7" d="M129.98,77.28c-1.05.93-2.85,1.26-4.08,1.93-1.59.86-3.24,1.87-4.74,2.88-.06.04.02.08.07.05,1.86-1.15,3.75-1.92,5.74-2.81,1.07-.48,2.54-1.01,3.32-1.96.12-.15-.23-.16-.31-.09Z"/>
            <path class="cls-7" d="M119.37,83.11c-.61.61-1.44.93-2.03,1.54-.14.14.14.2.24.13.72-.46,1.47-.96,2.04-1.6.1-.1-.18-.14-.25-.07Z"/>
            <path class="cls-7" d="M131.35,67.51c-.7-.2-1.39-.39-2.1-.58-.71-.19-1.41-.6-2.13-.73-1.08-.21-2.33-.09-3.42.03-.15.02-.18.17-.01.18,1.29.1,2.43.41,3.67.78,1.21.37,2.56.37,3.81.58.18.03.46-.18.18-.26Z"/>
            <path class="cls-7" d="M121.29,66.18c-.44.05-.87.05-1.3.02-.42-.03-.85-.11-1.27-.04-.1.01-.18.13-.04.16.4.11.84.09,1.25.11.47.02.93,0,1.4-.06.2-.03.16-.21-.03-.19Z"/>
            <path class="cls-7" d="M133.25,61.47c-.78,0-1.53.18-2.29.26-.09.01-.26.09-.2.21.18.33.73.16,1.01.09.49-.12.97-.25,1.47-.31.2-.02.25-.25.02-.25Z"/>
            <path class="cls-7" d="M108.61,55.53c-3.65.18-7.22.52-10.85.93-.2.02-.26.27-.02.26,1.76-.09,3.51-.41,5.28-.5,1.87-.1,3.75-.03,5.58-.43.18-.04.26-.27.02-.25Z"/>
            <path class="cls-7" d="M93.99,57.26c-.83.25-1.7.36-2.53.62-.12.04-.06.15.05.13.87-.16,1.74-.33,2.58-.6.17-.06.04-.18-.09-.14Z"/>
            <path class="cls-7" d="M74.18,106.93c.74-.85,1.96-2.02,2.14-3.18.03-.17-.31-.13-.35,0-.31,1.02-1.48,1.89-2.18,2.62-.61.63-1.37,1.84-2.19,2.16-.29.11-.13.32.12.3,1.11-.1,1.79-1.12,2.47-1.89Z"/>
          </g>
        </g>
      </g>
    </g>
  </g>
</svg>